<svg viewBox="0 0 96 96" xmlns="http://www.w3.org/2000/svg" xmlns:xlink="http://www.w3.org/1999/xlink" id="Icons_FunnyFaceOutline" overflow="hidden"><path d="M55 43.73 67 50.73C67.3051 50.9033 67.6492 50.9962 68 51 69.1046 50.998 69.9984 50.101 69.9965 48.9965 69.9952 48.2847 69.6157 47.6272 69 47.27L60 42 69 36.73C69.9322 36.1374 70.2075 34.9014 69.6149 33.9692 69.0573 33.0921 67.9209 32.7883 67 33.27L55 40.27C54.0445 40.8242 53.7193 42.0481 54.2735 43.0035 54.4483 43.3048 54.6987 43.5552 55 43.73Z" stroke="none" stroke-width="1" stroke-linecap="butt" fill="#FFFFFF" fill-opacity="1"/><path d="M26.27 50C26.6269 50.6182 27.2862 50.9993 28 51 28.3508 50.9962 28.6949 50.9033 29 50.73L41 43.73C41.9555 43.1758 42.2807 41.9519 41.7265 40.9965 41.5517 40.6952 41.3013 40.4448 41 40.27L29 33.27C28.0213 32.758 26.8128 33.1364 26.3008 34.1151 25.819 35.036 26.1229 36.1724 27 36.73L36 42 27 47.27C26.0454 47.8229 25.7188 49.0444 26.27 50Z" stroke="none" stroke-width="1" stroke-linecap="butt" fill="#FFFFFF" fill-opacity="1"/><path d="M25.5 62C31.6191 74.4264 46.6531 79.5395 59.0795 73.4204 64.0415 70.9771 68.0566 66.962 70.5 62L25.5 62Z" stroke="none" stroke-width="1" stroke-linecap="butt" fill="#FFFFFF" fill-opacity="1"/><path d="M48 14C66.7777 14 82 29.2223 82 48 82 66.7777 66.7777 82 48 82 29.2223 82 14 66.7777 14 48 14 29.2223 29.2223 14 48 14M48 10C27.0132 10 10 27.0132 10 48 10 68.9868 27.0132 86 48 86 68.9868 86 86 68.9868 86 48 86 27.0132 68.9868 10 48 10Z" stroke="none" stroke-width="1" stroke-linecap="butt" fill="#FFFFFF" fill-opacity="1"/></svg>