<svg viewBox="0 0 96 96" xmlns="http://www.w3.org/2000/svg" xmlns:xlink="http://www.w3.org/1999/xlink" id="Icons_AngelFaceOutline" overflow="hidden"><path d="M33.5 40C36.3326 39.9992 38.7799 41.9796 39.37 44.75 39.6402 45.821 40.7274 46.4702 41.7984 46.2001 42.8124 45.9443 43.4582 44.9505 43.28 43.92 42.1279 38.5187 36.8153 35.074 31.4139 36.226 27.5564 37.0489 24.5428 40.0624 23.72 43.92 23.5318 45.0084 24.2615 46.0433 25.3499 46.2316 26.3804 46.4098 27.3742 45.764 27.63 44.75 28.2201 41.9795 30.6674 39.9992 33.5 40Z" stroke="none" stroke-width="1" stroke-linecap="butt" fill="#70AD47" fill-opacity="1"/><path d="M62.5 36C57.786 36.0196 53.7191 39.313 52.72 43.92 52.5318 45.0084 53.2615 46.0433 54.3499 46.2316 55.3804 46.4098 56.3742 45.764 56.63 44.75 57.3161 41.5081 60.5003 39.4362 63.7422 40.1222 66.0644 40.6136 67.8786 42.4278 68.37 44.75 68.5582 45.8384 69.5932 46.5681 70.6816 46.3799 71.77 46.1917 72.4997 45.1568 72.3115 44.0683 72.3029 44.0185 72.2924 43.969 72.28 43.92 71.2809 39.313 67.214 36.0196 62.5 36Z" stroke="none" stroke-width="1" stroke-linecap="butt" fill="#70AD47" fill-opacity="1"/><path d="M67.46 61.41C66.5842 60.7406 65.3319 60.9061 64.66 61.78 57.5993 70.9811 44.4165 72.7162 35.2155 65.6555 33.7599 64.5385 32.457 63.2356 31.34 61.78 30.6662 60.9046 29.4104 60.7412 28.535 61.415 27.6596 62.0888 27.4962 63.3446 28.17 64.22 36.578 75.1718 52.2722 77.234 63.224 68.826 64.9537 67.4981 66.5021 65.9496 67.83 64.22 68.5042 63.3451 68.3415 62.0892 67.4665 61.415 67.4644 61.4133 67.4622 61.4117 67.46 61.41Z" stroke="none" stroke-width="1" stroke-linecap="butt" fill="#70AD47" fill-opacity="1"/><path d="M19.32 17.37C20.4133 16.3386 21.5616 15.3672 22.76 14.46 21.0776 13.9632 19.5153 13.1259 18.17 12 20 10 29.9 6 48 6 66.1 6 76 10 77.83 12 76.4847 13.1259 74.9224 13.9632 73.24 14.46 74.4384 15.3672 75.5867 16.3386 76.68 17.37 80 15.82 82 14 82 12 82 6.48 66.78 2 48 2 29.22 2 14 6.48 14 12 14 14 16 15.82 19.32 17.37Z" stroke="none" stroke-width="1" stroke-linecap="butt" fill="#70AD47" fill-opacity="1"/><path d="M48 14C66.7777 14 82 29.2223 82 48 82 66.7777 66.7777 82 48 82 29.2223 82 14 66.7777 14 48 14 29.2223 29.2223 14 48 14M48 10C27.0132 10 10 27.0132 10 48 10 68.9868 27.0132 86 48 86 68.9868 86 86 68.9868 86 48 86 27.0132 68.9868 10 48 10Z" stroke="none" stroke-width="1" stroke-linecap="butt" fill="#70AD47" fill-opacity="1"/></svg>